HIERARCHY
ROOT hip
{
  OFFSET 0 90.174 2.4664
  CHANNELS 6 Xposition Yposition Zposition Zrotation Xrotation Yrotation
  JOINT abdomen
  {
    OFFSET 0 -1.186 -1.5018
    CHANNELS 6 Xposition Yposition Zposition Zrotation Xrotation Yrotation
    JOINT abdomen2
    {
      OFFSET 0 9.964 0.2134
      CHANNELS 6 Xposition Yposition Zposition Zrotation Xrotation Yrotation
      JOINT chest
      {
        OFFSET 0 13.134 -3.2573
        CHANNELS 6 Xposition Yposition Zposition Zrotation Xrotation Yrotation
        JOINT neck
        {
          OFFSET 0 20.686 -1.6905
          CHANNELS 6 Xposition Yposition Zposition Zrotation Xrotation Yrotation
          JOINT head
          {
            OFFSET 0 7.238 -0.1237
            CHANNELS 6 Xposition Yposition Zposition Zrotation Xrotation Yrotation
            End Site
            {
              OFFSET 0 0 0
            }
          }
        }
        JOINT lCollar
        {
          OFFSET 1.7069 20.075 5.0056
          CHANNELS 6 Xposition Yposition Zposition Zrotation Xrotation Yrotation
          JOINT lShldr
          {
            OFFSET 13.6458 -0.047 -4.849
            CHANNELS 6 Xposition Yposition Zposition Zrotation Xrotation Yrotation
            JOINT lForeArm
            {
              OFFSET 28.3255 -0.9759 2.2888
              CHANNELS 6 Xposition Yposition Zposition Zrotation Xrotation Yrotation
              JOINT lHand
              {
                OFFSET 22.1583 -0.53 10.8316
                CHANNELS 6 Xposition Yposition Zposition Zrotation Xrotation Yrotation
                JOINT lThumb1
                {
                  OFFSET 0.786 0.112 2.5817
                  CHANNELS 6 Xposition Yposition Zposition Zrotation Xrotation Yrotation
                  JOINT lThumb2
                  {
                    OFFSET 0.3601 -0.878 4.2331
                    CHANNELS 6 Xposition Yposition Zposition Zrotation Xrotation Yrotation
                    JOINT lThumb2_End
                    {
                      OFFSET 1.8127 -1.216 2.2227
                      CHANNELS 6 Xposition Yposition Zposition Zrotation Xrotation Yrotation
                      End Site
                      {
                        OFFSET 0.0181 -0.0122 0.0222
                      }
                    }
                  }
                }
                JOINT lCarpal1
                {
                  OFFSET 0.9571 1.114 1.7695
                  CHANNELS 6 Xposition Yposition Zposition Zrotation Xrotation Yrotation
                  JOINT lIndex1
                  {
                    OFFSET 4.1246 0.487 4.1451
                    CHANNELS 6 Xposition Yposition Zposition Zrotation Xrotation Yrotation
                    JOINT lIndex2
                    {
                      OFFSET 3.4052 -1.454 2.7682
                      CHANNELS 6 Xposition Yposition Zposition Zrotation Xrotation Yrotation
                      JOINT lIndex2_End
                      {
                        OFFSET 1.4531 -1.795 1.2713
                        CHANNELS 6 Xposition Yposition Zposition Zrotation Xrotation Yrotation
                        End Site
                        {
                          OFFSET 0.0145 -0.0179 0.0127
                        }
                      }
                    }
                  }
                  JOINT lMid1
                  {
                    OFFSET 5.6954 0.21 2.1184
                    CHANNELS 6 Xposition Yposition Zposition Zrotation Xrotation Yrotation
                    JOINT lMid2
                    {
                      OFFSET 3.9766 -1.54 2.3863
                      CHANNELS 6 Xposition Yposition Zposition Zrotation Xrotation Yrotation
                      JOINT lMid2_End
                      {
                        OFFSET 1.4042 -1.926 1.125
                        CHANNELS 6 Xposition Yposition Zposition Zrotation Xrotation Yrotation
                        End Site
                        {
                          OFFSET 0.014 -0.0193 0.0113
                        }
                      }
                    }
                  }
                }
                JOINT lCarpal2
                {
                  OFFSET 2.0956 0.66 -0.3894
                  CHANNELS 6 Xposition Yposition Zposition Zrotation Xrotation Yrotation
                  JOINT lRing1
                  {
                    OFFSET 5.0395 -0.09 2.4971
                    CHANNELS 6 Xposition Yposition Zposition Zrotation Xrotation Yrotation
                    JOINT lRing2
                    {
                      OFFSET 3.7921 -1.552 1.4806
                      CHANNELS 6 Xposition Yposition Zposition Zrotation Xrotation Yrotation
                      JOINT lRing2_End
                      {
                        OFFSET 1.4655 -1.808 0.9609
                        CHANNELS 6 Xposition Yposition Zposition Zrotation Xrotation Yrotation
                        End Site
                        {
                          OFFSET 0.0147 -0.0181 0.0096
                        }
                      }
                    }
                  }
                  JOINT lPinky1
                  {
                    OFFSET 4.9141 -1.269 0.3591
                    CHANNELS 6 Xposition Yposition Zposition Zrotation Xrotation Yrotation
                    JOINT lPinky2
                    {
                      OFFSET 3.1477 -1.685 0.8462
                      CHANNELS 6 Xposition Yposition Zposition Zrotation Xrotation Yrotation
                      JOINT lPinky2_End
                      {
                        OFFSET 0.8055 -1.585 0.7955
                        CHANNELS 6 Xposition Yposition Zposition Zrotation Xrotation Yrotation
                        End Site
                        {
                          OFFSET 0.0081 -0.0158 0.008
                        }
                      }
                    }
                  }
                }
              }
            }
          }
        }
        JOINT rCollar
        {
          OFFSET -1.7069 20.075 5.0056
          CHANNELS 6 Xposition Yposition Zposition Zrotation Xrotation Yrotation
          JOINT rShldr
          {
            OFFSET -13.6458 -0.047 -4.849
            CHANNELS 6 Xposition Yposition Zposition Zrotation Xrotation Yrotation
            JOINT rForeArm
            {
              OFFSET -28.3255 -0.9759 2.2888
              CHANNELS 6 Xposition Yposition Zposition Zrotation Xrotation Yrotation
              JOINT rHand
              {
                OFFSET -22.1583 -0.53 10.8316
                CHANNELS 6 Xposition Yposition Zposition Zrotation Xrotation Yrotation
                JOINT rThumb1
                {
                  OFFSET -0.786 0.112 2.5817
                  CHANNELS 6 Xposition Yposition Zposition Zrotation Xrotation Yrotation
                  JOINT rThumb2
                  {
                    OFFSET -0.3601 -0.878 4.2331
                    CHANNELS 6 Xposition Yposition Zposition Zrotation Xrotation Yrotation
                    JOINT rThumb2_End
                    {
                      OFFSET -1.8127 -1.216 2.2227
                      CHANNELS 6 Xposition Yposition Zposition Zrotation Xrotation Yrotation
                      End Site
                      {
                        OFFSET -0.0181 -0.0122 0.0222
                      }
                    }
                  }
                }
                JOINT rCarpal1
                {
                  OFFSET -0.9571 1.114 1.7695
                  CHANNELS 6 Xposition Yposition Zposition Zrotation Xrotation Yrotation
                  JOINT rIndex1
                  {
                    OFFSET -4.1246 0.487 4.1451
                    CHANNELS 6 Xposition Yposition Zposition Zrotation Xrotation Yrotation
                    JOINT rIndex2
                    {
                      OFFSET -3.4052 -1.454 2.7682
                      CHANNELS 6 Xposition Yposition Zposition Zrotation Xrotation Yrotation
                      JOINT rIndex2_End
                      {
                        OFFSET -1.4531 -1.795 1.2713
                        CHANNELS 6 Xposition Yposition Zposition Zrotation Xrotation Yrotation
                        End Site
                        {
                          OFFSET -0.0145 -0.018 0.0127
                        }
                      }
                    }
                  }
                  JOINT rMid1
                  {
                    OFFSET -5.6954 0.21 2.1184
                    CHANNELS 6 Xposition Yposition Zposition Zrotation Xrotation Yrotation
                    JOINT rMid2
                    {
                      OFFSET -3.9766 -1.54 2.3863
                      CHANNELS 6 Xposition Yposition Zposition Zrotation Xrotation Yrotation
                      JOINT rMid2_End
                      {
                        OFFSET -1.4042 -1.926 1.125
                        CHANNELS 6 Xposition Yposition Zposition Zrotation Xrotation Yrotation
                        End Site
                        {
                          OFFSET -0.014 -0.0193 0.0113
                        }
                      }
                    }
                  }
                }
                JOINT rCarpal2
                {
                  OFFSET -2.0956 0.66 -0.3894
                  CHANNELS 6 Xposition Yposition Zposition Zrotation Xrotation Yrotation
                  JOINT rRing1
                  {
                    OFFSET -5.0395 -0.09 2.4971
                    CHANNELS 6 Xposition Yposition Zposition Zrotation Xrotation Yrotation
                    JOINT rRing2
                    {
                      OFFSET -3.7921 -1.552 1.4806
                      CHANNELS 6 Xposition Yposition Zposition Zrotation Xrotation Yrotation
                      JOINT rRing2_End
                      {
                        OFFSET -1.4655 -1.808 0.9609
                        CHANNELS 6 Xposition Yposition Zposition Zrotation Xrotation Yrotation
                        End Site
                        {
                          OFFSET -0.0147 -0.0181 0.0096
                        }
                      }
                    }
                  }
                  JOINT rPinky1
                  {
                    OFFSET -4.9141 -1.269 0.3592
                    CHANNELS 6 Xposition Yposition Zposition Zrotation Xrotation Yrotation
                    JOINT rPinky2
                    {
                      OFFSET -3.1477 -1.685 0.8462
                      CHANNELS 6 Xposition Yposition Zposition Zrotation Xrotation Yrotation
                      JOINT rPinky2_End
                      {
                        OFFSET -0.8055 -1.585 0.7955
                        CHANNELS 6 Xposition Yposition Zposition Zrotation Xrotation Yrotation
                        End Site
                        {
                          OFFSET -0.0081 -0.0158 0.008
                        }
                      }
                    }
                  }
                }
              }
            }
          }
        }
      }
    }
  }
  JOINT lThigh
  {
    OFFSET 8.367 -8.2066 0.5982
    CHANNELS 6 Xposition Yposition Zposition Zrotation Xrotation Yrotation
    JOINT lShin
    {
      OFFSET 2.1923 -43.463 -0.4932
      CHANNELS 6 Xposition Yposition Zposition Zrotation Xrotation Yrotation
      JOINT lFoot
      {
        OFFSET 0.7333 -45.8593 -2.6451
        CHANNELS 6 Xposition Yposition Zposition Zrotation Xrotation Yrotation
        End Site
        {
          OFFSET 2.6618 -4.2699 12.3931
        }
      }
    }
  }
  JOINT rThigh
  {
    OFFSET -8.367 -8.2066 0.5982
    CHANNELS 6 Xposition Yposition Zposition Zrotation Xrotation Yrotation
    JOINT rShin
    {
      OFFSET -2.1923 -43.463 -0.4931
      CHANNELS 6 Xposition Yposition Zposition Zrotation Xrotation Yrotation
      JOINT rFoot
      {
        OFFSET -0.7333 -45.8593 -2.6451
        CHANNELS 6 Xposition Yposition Zposition Zrotation Xrotation Yrotation
        End Site
        {
          OFFSET -2.6618 -4.2699 12.3931
        }
      }
    }
  }
}
MOTION
Frames:	4
Frame Time:	0.0333333
0 90.174 2.4664 0 0 -0 0 -1.186 -1.5018 0 0 -0 0 9.964 0.2134 0 0 -0 0 13.134 -3.2573 0 0 -0 0 20.686 -1.6905 0 0 -0 0 7.238 -0.1237 0 0 -0 1.7069 20.075 5.0056 0 0 -0 13.6458 -0.047 -4.849 1.66051 0.0835086 5.75766 28.3255 -0.9759 2.2888 -0.0175111 0.895433 15.7816 22.1583 -0.53 10.8316 7.95139e-016 -1.98785e-016 -0 0.786 0.112 2.5817 5.46658e-016 -3.97569e-016 -0 0.3601 -0.878 4.2331 5.96354e-016 0 -0 1.8127 -1.216 2.2227 3.97569e-016 1.98785e-016 9.54166e-015 0.9571 1.114 1.7695 1.49089e-016 -3.97569e-016 -0 4.1246 0.487 4.1451 6.4605e-016 0 3.18055e-015 3.4052 -1.454 2.7682 5.96354e-016 0 3.18055e-015 1.4531 -1.795 1.2713 8.94531e-016 -1.98785e-016 6.36111e-015 5.6954 0.21 2.1184 6.4605e-016 0 3.18055e-015 3.9766 -1.54 2.3863 5.96354e-016 0 3.18055e-015 1.4042 -1.926 1.125 8.94531e-016 -1.98785e-016 6.36111e-015 2.0956 0.66 -0.3894 1.49089e-016 -3.97569e-016 -0 5.0395 -0.09 2.4971 6.4605e-016 0 3.18055e-015 3.7921 -1.552 1.4806 5.96354e-016 0 3.18055e-015 1.4655 -1.808 0.9609 8.94531e-016 -1.98785e-016 6.36111e-015 4.9141 -1.269 0.3591 6.4605e-016 0 3.18055e-015 3.1477 -1.685 0.8462 5.96354e-016 0 3.18055e-015 0.8055 -1.585 0.7955 8.94531e-016 -1.98785e-016 6.36111e-015 -1.7069 20.075 5.0056 0 0 -0 -13.6458 -0.047 -4.849 -1.4496 0.0636048 -5.0245 -28.3255 -0.9759 2.2888 -1.74811 1.20616 -16.8394 -22.1583 -0.53 10.8316 -1.19271e-015 1.98785e-016 -3.18055e-015 -0.786 0.112 2.5817 -3.97569e-016 1.98785e-016 -3.18055e-015 -0.3601 -0.878 4.2331 -2.98177e-016 1.98785e-016 -3.18055e-015 -1.8127 -1.216 2.2227 -2.98177e-016 3.97569e-016 -0 -0.9571 1.114 1.7695 4.96962e-016 0 -6.36111e-015 -4.1246 0.487 4.1451 -9.93923e-017 3.97569e-016 -0 -3.4052 -1.454 2.7682 -8.94531e-016 5.96354e-016 -0 -1.4531 -1.795 1.2713 -3.97569e-016 3.97569e-016 -0 -5.6954 0.21 2.1184 -9.93923e-017 3.97569e-016 -0 -3.9766 -1.54 2.3863 -8.94531e-016 5.96354e-016 -0 -1.4042 -1.926 1.125 -3.97569e-016 3.97569e-016 -0 -2.0956 0.66 -0.3894 4.96962e-016 0 -6.36111e-015 -5.0395 -0.09 2.4971 -9.93923e-017 3.97569e-016 -0 -3.7921 -1.552 1.4806 -8.94531e-016 5.96354e-016 -0 -1.4655 -1.808 0.9609 -3.97569e-016 3.97569e-016 -0 -4.9141 -1.269 0.3592 -9.93923e-017 3.97569e-016 -0 -3.1477 -1.685 0.8462 -8.94531e-016 5.96354e-016 -0 -0.8055 -1.585 0.7955 -3.97569e-016 3.97569e-016 -0 8.367 -8.2066 0.5982 -4.66115 -1.03232 0.120763 2.1923 -43.463 -0.4932 0.00990601 1.55097 0.177175 0.7333 -45.8593 -2.6451 4.65196 -0.54114 -0.255042 -8.367 -8.2066 0.5982 4.66115 -1.03222 -0.120763 -2.1923 -43.463 -0.4931 -0.00990459 1.5509 -0.177176 -0.7333 -45.8593 -2.6451 -4.65196 -0.541171 0.255041 
8.64351 25.184 -49.9642 0 0 -0 0 -1.186 -1.5018 0.133564 0.0480353 0.00382516 1.77636e-015 9.964 0.2134 0.267126 0.0960793 0.00753835 1.77636e-015 13.134 -3.2573 0.267126 0.0960793 0.00753835 3.55271e-015 20.686 -1.6905 0.0126827 0.208234 -9.59871e-006 0 7.238 -0.1237 -2.77352e-008 -25.0011 2.87001e-008 1.7069 20.075 5.0056 -13.8414 3.47491 -29.8491 13.6458 -0.047 -4.849 -30.9226 -57.5417 -36.9088 28.3255 -0.9759 2.2888 -31.0306 -29.7326 -35.4962 22.1583 -0.53 10.8316 -31.6539 -27.493 -11.1936 0.786 0.112 2.5817 2.76518e-006 -1.33452e-006 7.8365e-007 0.3601 -0.878 4.2331 -4.76664e-007 -5.7213e-007 -4.06834e-007 1.8127 -1.216 2.2227 4.76664e-007 5.7213e-007 4.06834e-007 0.9571 1.114 1.7695 -1.27222e-014 4.77083e-015 -9.54166e-015 4.1246 0.487 4.1451 2.76518e-006 -1.33452e-006 7.8365e-007 3.4052 -1.454 2.7682 -4.76664e-007 -5.7213e-007 -4.06834e-007 1.4531 -1.795 1.2713 4.76664e-007 5.7213e-007 4.06834e-007 5.6954 0.21 2.1184 2.76518e-006 -1.33452e-006 7.8365e-007 3.9766 -1.54 2.3863 -4.76664e-007 -5.7213e-007 -4.06834e-007 1.4042 -1.926 1.125 4.76664e-007 5.7213e-007 4.06834e-007 2.0956 0.66 -0.3894 -1.27222e-014 4.77083e-015 -9.54166e-015 5.0395 -0.09 2.4971 2.76518e-006 -1.33452e-006 7.8365e-007 3.7921 -1.552 1.4806 -4.76664e-007 -5.7213e-007 -4.06834e-007 1.4655 -1.808 0.9609 4.76664e-007 5.7213e-007 4.06834e-007 4.9141 -1.269 0.3591 2.76518e-006 -1.33452e-006 7.8365e-007 3.1477 -1.685 0.8462 -4.76664e-007 -5.7213e-007 -4.06834e-007 0.8055 -1.585 0.7955 4.76664e-007 5.7213e-007 4.06834e-007 -1.7069 20.075 5.0056 21.1913 8.54705 39.3069 -13.6458 -0.047 -4.849 48.8626 -45.5645 45.7672 -28.3255 -0.9759 2.2888 22.0137 -30.3594 -5.86565 -22.1583 -0.53 10.8316 31.625 -27.6263 10.2857 -0.786 0.112 2.5817 -2.27283e-006 -6.86389e-007 -4.39382e-007 -0.3601 -0.878 4.2331 -7.95139e-016 -2.38542e-015 3.18055e-015 -1.8127 -1.216 2.2227 1.59028e-015 4.37326e-015 -0 -0.9571 1.114 1.7695 2.38542e-015 4.37326e-015 -6.36111e-015 -4.1246 0.487 4.1451 -2.27283e-006 -6.86389e-007 -4.39381e-007 -3.4052 -1.454 2.7682 -1.98785e-015 -1.98785e-015 -0 -1.4531 -1.795 1.2713 2.38542e-015 3.18055e-015 -0 -5.6954 0.21 2.1184 -2.27283e-006 -6.86389e-007 -4.39381e-007 -3.9766 -1.54 2.3863 -1.98785e-015 -1.98785e-015 -0 -1.4042 -1.926 1.125 2.38542e-015 3.18055e-015 -0 -2.0956 0.66 -0.3894 2.38542e-015 4.37326e-015 -6.36111e-015 -5.0395 -0.09 2.4971 -2.27283e-006 -6.86389e-007 -4.39381e-007 -3.7921 -1.552 1.4806 -1.98785e-015 -1.98785e-015 -0 -1.4655 -1.808 0.9609 2.38542e-015 3.18055e-015 -0 -4.9141 -1.269 0.3592 -2.27283e-006 -6.86389e-007 -4.39381e-007 -3.1477 -1.685 0.8462 -1.98785e-015 -1.98785e-015 -0 -0.8055 -1.585 0.7955 2.38542e-015 3.18055e-015 -0 8.367 -8.2066 0.5982 0.624536 -69.4104 16.8443 2.1923 -43.463 -0.4932 172.687 34.1062 -165.169 0.7333 -45.8593 -2.6451 -1.83567 75.3196 15.8448 -8.367 -8.2066 0.5982 -176.706 -61.7931 176.179 -2.1923 -43.463 -0.4931 -158.087 74.1974 155.768 -0.7333 -45.8593 -2.6451 -8.06922 6.79283 -9.9314 
8.64351 25.184 -49.9642 0 0 -0 0 -1.186 -1.5018 0.133564 0.0480353 0.00382516 1.77636e-015 9.964 0.2134 0.267126 0.0960793 0.00753835 1.77636e-015 13.134 -3.2573 0.267126 0.0960793 0.00753835 3.55271e-015 20.686 -1.6905 0.0126827 0.208234 -9.59871e-006 0 7.238 -0.1237 0.070271 -24.4964 0.0593899 1.7069 20.075 5.0056 -14.1548 3.64603 -29.6844 13.6458 -0.047 -4.849 -31.0008 -57.5282 -36.4236 28.3255 -0.9759 2.2888 -32.0176 -28.5822 -36.4784 22.1583 -0.53 10.8316 -32.1321 -27.1775 -11.4926 0.786 0.112 2.5817 -4.79359e-007 -5.66263e-007 -4.12364e-007 0.3601 -0.878 4.2331 -4.79359e-007 -5.66263e-007 -4.12364e-007 1.8127 -1.216 2.2227 -4.79359e-007 -5.66263e-007 -4.12364e-007 0.9571 1.114 1.7695 3.18055e-015 1.59028e-015 6.36111e-015 4.1246 0.487 4.1451 -4.79359e-007 -5.66263e-007 -4.12364e-007 3.4052 -1.454 2.7682 -4.79359e-007 -5.66263e-007 -4.12364e-007 1.4531 -1.795 1.2713 -4.79359e-007 -5.66263e-007 -4.12364e-007 5.6954 0.21 2.1184 -4.79359e-007 -5.66263e-007 -4.12364e-007 3.9766 -1.54 2.3863 -4.79359e-007 -5.66263e-007 -4.12364e-007 1.4042 -1.926 1.125 -4.79359e-007 -5.66263e-007 -4.12364e-007 2.0956 0.66 -0.3894 3.18055e-015 1.59028e-015 6.36111e-015 5.0395 -0.09 2.4971 -4.79359e-007 -5.66263e-007 -4.12364e-007 3.7921 -1.552 1.4806 -4.79359e-007 -5.66263e-007 -4.12364e-007 1.4655 -1.808 0.9609 -4.79359e-007 -5.66263e-007 -4.12364e-007 4.9141 -1.269 0.3591 -4.79359e-007 -5.66263e-007 -4.12364e-007 3.1477 -1.685 0.8462 -4.79359e-007 -5.66263e-007 -4.12364e-007 0.8055 -1.585 0.7955 -4.79359e-007 -5.66263e-007 -4.12364e-007 -1.7069 20.075 5.0056 21.1913 8.54705 39.3069 -13.6458 -0.047 -4.849 48.8626 -45.5645 45.7672 -28.3255 -0.9759 2.2888 22.0137 -30.3594 -5.86565 -22.1583 -0.53 10.8316 31.625 -27.6263 10.2857 -0.786 0.112 2.5817 -2.27283e-006 -6.86389e-007 -4.39382e-007 -0.3601 -0.878 4.2331 -7.95139e-016 -2.38542e-015 3.18055e-015 -1.8127 -1.216 2.2227 1.59028e-015 4.37326e-015 -0 -0.9571 1.114 1.7695 2.38542e-015 4.37326e-015 -6.36111e-015 -4.1246 0.487 4.1451 -2.27283e-006 -6.86389e-007 -4.39381e-007 -3.4052 -1.454 2.7682 -1.98785e-015 -1.98785e-015 -0 -1.4531 -1.795 1.2713 2.38542e-015 3.18055e-015 -0 -5.6954 0.21 2.1184 -2.27283e-006 -6.86389e-007 -4.39381e-007 -3.9766 -1.54 2.3863 -1.98785e-015 -1.98785e-015 -0 -1.4042 -1.926 1.125 2.38542e-015 3.18055e-015 -0 -2.0956 0.66 -0.3894 2.38542e-015 4.37326e-015 -6.36111e-015 -5.0395 -0.09 2.4971 -2.27283e-006 -6.86389e-007 -4.39381e-007 -3.7921 -1.552 1.4806 -1.98785e-015 -1.98785e-015 -0 -1.4655 -1.808 0.9609 2.38542e-015 3.18055e-015 -0 -4.9141 -1.269 0.3592 -2.27283e-006 -6.86389e-007 -4.39381e-007 -3.1477 -1.685 0.8462 -1.98785e-015 -1.98785e-015 -0 -0.8055 -1.585 0.7955 2.38542e-015 3.18055e-015 -0 8.367 -8.2066 0.5982 0.624536 -69.4104 16.8443 2.1923 -43.463 -0.4932 172.687 34.1062 -165.169 0.7333 -45.8593 -2.6451 -1.83567 75.3196 15.8448 -8.367 -8.2066 0.5982 -176.706 -61.7931 176.179 -2.1923 -43.463 -0.4931 -158.087 74.1974 155.768 -0.7333 -45.8593 -2.6451 -8.06922 6.79283 -9.9314 
8.64351 25.184 -49.9642 0 0 -0 0 -1.186 -1.5018 0.133564 0.0480353 0.00382516 1.77636e-015 9.964 0.2134 0.267126 0.0960793 0.00753835 0 13.134 -3.2573 0.267126 0.0960793 0.00753835 1.77636e-015 20.686 -1.6905 0.0126827 0.208234 -9.59871e-006 0 7.238 -0.1237 0.139776 -23.991 0.117938 1.7069 20.075 5.0056 -14.4689 3.81637 -29.5186 13.6458 -0.047 -4.849 -31.0793 -57.515 -35.9379 28.3255 -0.9759 2.2888 -32.9783 -27.4093 -37.4342 22.1583 -0.53 10.8316 -32.6077 -26.8592 -11.7882 0.786 0.112 2.5817 2.10347e-006 -2.02001e-006 5.40759e-006 0.3601 -0.878 4.2331 -6.36111e-015 3.18055e-015 -0 1.8127 -1.216 2.2227 7.30993e-008 2.0388e-006 1.58222e-006 0.9571 1.114 1.7695 -3.18055e-015 4.77083e-015 9.54166e-015 4.1246 0.487 4.1451 2.10347e-006 -2.02001e-006 5.40759e-006 3.4052 -1.454 2.7682 -6.36111e-015 3.18055e-015 -0 1.4531 -1.795 1.2713 7.30993e-008 2.0388e-006 1.58222e-006 5.6954 0.21 2.1184 2.10347e-006 -2.02001e-006 5.40759e-006 3.9766 -1.54 2.3863 -6.36111e-015 3.18055e-015 -0 1.4042 -1.926 1.125 7.30993e-008 2.0388e-006 1.58222e-006 2.0956 0.66 -0.3894 -3.18055e-015 4.77083e-015 9.54166e-015 5.0395 -0.09 2.4971 2.10347e-006 -2.02001e-006 5.40759e-006 3.7921 -1.552 1.4806 -6.36111e-015 3.18055e-015 -0 1.4655 -1.808 0.9609 7.30993e-008 2.0388e-006 1.58222e-006 4.9141 -1.269 0.3591 2.10347e-006 -2.02001e-006 5.40759e-006 3.1477 -1.685 0.8462 -6.36111e-015 3.18055e-015 -0 0.8055 -1.585 0.7955 7.30993e-008 2.0388e-006 1.58222e-006 -1.7069 20.075 5.0056 21.1913 8.54705 39.3069 -13.6458 -0.047 -4.849 48.8626 -45.5645 45.7672 -28.3255 -0.9759 2.2888 22.0137 -30.3594 -5.86565 -22.1583 -0.53 10.8316 31.625 -27.6263 10.2857 -0.786 0.112 2.5817 -2.38542e-015 -7.95139e-015 3.18055e-015 -0.3601 -0.878 4.2331 -1.19271e-015 -3.18055e-015 9.54166e-015 -1.8127 -1.216 2.2227 -6.36111e-015 -4.37326e-015 6.36111e-015 -0.9571 1.114 1.7695 1.19271e-015 -2.78299e-015 -3.18055e-015 -4.1246 0.487 4.1451 -5.1684e-015 -1.98785e-015 6.36111e-015 -3.4052 -1.454 2.7682 -3.18055e-015 -3.18055e-015 1.59028e-014 -1.4531 -1.795 1.2713 -6.75868e-015 -3.97569e-015 1.27222e-014 -5.6954 0.21 2.1184 -5.1684e-015 -1.98785e-015 6.36111e-015 -3.9766 -1.54 2.3863 -3.18055e-015 -3.18055e-015 1.59028e-014 -1.4042 -1.926 1.125 -6.75868e-015 -3.97569e-015 1.27222e-014 -2.0956 0.66 -0.3894 1.19271e-015 -2.78299e-015 -3.18055e-015 -5.0395 -0.09 2.4971 -5.1684e-015 -1.98785e-015 6.36111e-015 -3.7921 -1.552 1.4806 -3.18055e-015 -3.18055e-015 1.59028e-014 -1.4655 -1.808 0.9609 -6.75868e-015 -3.97569e-015 1.27222e-014 -4.9141 -1.269 0.3592 -5.1684e-015 -1.98785e-015 6.36111e-015 -3.1477 -1.685 0.8462 -3.18055e-015 -3.18055e-015 1.59028e-014 -0.8055 -1.585 0.7955 -6.75868e-015 -3.97569e-015 1.27222e-014 8.367 -8.2066 0.5982 0.624525 -69.4105 16.8443 2.1923 -43.463 -0.4932 172.687 34.1062 -165.169 0.7333 -45.8593 -2.6451 -1.8357 75.3196 15.8449 -8.367 -8.2066 0.5982 -176.706 -61.7931 176.179 -2.1923 -43.463 -0.4931 -158.087 74.1974 155.768 -0.7333 -45.8593 -2.6451 -8.06921 6.79287 -9.9314 
